<?xml version="1.0" encoding="utf-8"?>
<!-- Generator: Adobe Illustrator 26.5.0, SVG Export Plug-In . SVG Version: 6.00 Build 0)  -->
<svg version="1.1" id="Calque_1" xmlns="http://www.w3.org/2000/svg" xmlns:xlink="http://www.w3.org/1999/xlink" x="0px" y="0px"
	 viewBox="0 0 237.7 101.4" style="enable-background:new 0 0 237.7 101.4;" xml:space="preserve">
<style type="text/css">
	.st0{fill:#FFFFFF;}
</style>
<path class="st0" d="M48.6,49v0.1c-0.1,0-0.1,0-0.2,0C48.5,49.1,48.6,49,48.6,49z"/>
<path class="st0" d="M48.6,49v0.1c-0.1,0-0.1,0-0.2,0C48.5,49.1,48.6,49,48.6,49z"/>
<path class="st0" d="M11.9,30.4c-0.2-1.7,0.2-3.5,1.3-4.9c1.8-2.3,6.6-5.1,6.6-5.1h3.7c-0.9,0.9-5.6,4.9-5.6,4.9l3.6,0.1
	c0,0-3.8,3.6-5.5,4.3C14.7,30.2,13.3,30.4,11.9,30.4z"/>
<path class="st0" d="M9.9,29.4l0,3.1h3.8c-0.9,3.3-3.6,5.7-6.9,6.3C6.8,38.8,5.3,31,9.9,29.4z"/>
<path class="st0" d="M4.7,36.7l0.1,3h4c-0.6,3-2.4,5.6-5,7.1C3.8,46.8,0.5,40.7,4.7,36.7z"/>
<path class="st0" d="M1.1,46.6l3,2.9l2.6-2.3c0,0,1.6,7.4-2.9,12.7C3.7,59.9-0.9,57.2,1.1,46.6z"/>
<path class="st0" d="M4.5,62.4l3.1-5.1c0,0,1.4,8-1.1,13.8c0,0-7.3-3.3-6.4-12.7L4.5,62.4z"/>
<path class="st0" d="M3.8,71.4l5,2.3l0.1-6.1c0,0,5.8,4.4,4,15.3C12.9,82.9,4.3,81.2,3.8,71.4z"/>
<path class="st0" d="M9.8,85.5l6-0.1c-0.1-2.4-0.5-4.8-1.2-7.1c0,0,12.6,12.2,16.3,13c1.9,0.4,3.9,0.5,5.9,0.4v1.7l-16.3,0.1
	C20.4,93.5,12,91.2,9.8,85.5z"/>
<path class="st0" d="M83,94.3c0,0-2.5,5.5-11.5,5.5c-4.5,0-15.7-3.4-15.7-3.4l3.2,5.1h-4.4l-4.1-5.3l-4.1,5.3h-4.4l3.2-5.1
	c0,0-11.2,3.4-15.7,3.4c-9,0-11.5-5.5-11.5-5.5H83z"/>
<path class="st0" d="M52.6,49.1c-0.1,0-0.1,0-0.2,0V49C52.5,49,52.5,49.1,52.6,49.1z"/>
<path class="st0" d="M52.6,49.1c-0.1,0-0.1,0-0.2,0V49C52.5,49,52.5,49.1,52.6,49.1z"/>
<path class="st0" d="M88,64c0.8-2.7,1.2-5.5,1.3-8.2h-3.8v-3.4h3.7c-0.2-2.9-0.6-5.8-1.3-8.6l-3.8,0.7l-0.4-2.6l3.5-0.6
	c-1.1-3.5-2.8-6.7-4.9-9.7l-2.6,2.1l-1.7-2l2.6-2.2c-0.6-0.7-1.2-1.3-1.8-1.9l-7.4,7.6c5.4,5.3,8.4,12.5,8.4,20
	C79.7,68,71,79.2,58.5,82.4c0-0.4,0-0.7,0-1.1c0-0.5,0-1,0-1.4c-0.3-5.4-2.4-9.7-5.3-11.4c3-1.5,5-5.2,5-9.6c0-4.6-2.3-8.5-5.6-9.8
	c-0.1,0-0.1,0-0.2,0V49c0.1,0,0.1,0,0.2,0.1c3.8-1.7,5.5-6.1,3.8-9.9c-0.8-1.8-2.2-3.1-4-3.9V35c4.1-0.2,10.8-4.8,10.8-10.2
	c0-3.8-3.9-6.4-7.7-6.4c-1.8,0-2.7,0.4-3.1,1v-5.8c1.6,1.4,4.2,2.2,5.6,2.2c2.3,0,1.6-1.5,4.5-1.5c2.5,0,5.6,6.2,5.6,6.2l20.2-0.1
	C84,14.5,68,3.4,68,3.4s-9.4-7.3-11.2-0.6c-1.3,4.8-3.5,5.6-4.4,5.7V6.7c0.2-0.9,2.4-1.8,2.6-3.1c0.3-1.8-2-3.3-4.5-3.5
	C48,0.3,45.7,1.8,46,3.6c0.2,1.3,2.5,2.2,2.7,3.1v1.8c-0.9-0.1-3.1-0.9-4.4-5.7c-1.8-6.7-11.2,0.6-11.2,0.6s-16,11.1-20.4,16.9
	l20.2,0.1c0,0,3-6.2,5.6-6.2c2.9,0,2.3,1.5,4.5,1.5c1.4,0,4-0.8,5.6-2.2v5.8c-0.4-0.6-1.3-1-3.1-1c-3.8,0-7.7,2.6-7.7,6.4
	c0,5.4,6.7,10,10.8,10.2v0.3c-3.8,1.6-5.7,6-4,9.8c0.7,1.8,2.1,3.2,3.9,4c0,0,0.1,0,0.2-0.1v0.1c-0.1,0-0.1,0-0.2,0
	c-3.2,1.3-5.6,5.2-5.6,9.8c0,4.4,2.1,8.1,5,9.6c-3,1.7-5,6-5.4,11.4c0,0.5,0,0.9,0,1.4c0,0.3,0,0.7,0,1C30.1,79.2,21.3,68,21.3,55.1
	c0-7.5,3-14.7,8.4-20l-7.4-7.6c-0.6,0.6-1.3,1.3-1.8,1.9l2.6,2.2l-1.7,2l-2.6-2.1c-2.1,2.9-3.8,6.2-4.9,9.7l3.5,0.6L17,44.3
	l-3.8-0.7c-0.7,2.8-1.2,5.7-1.3,8.6h3.7v3.4h-3.8c0.1,2.8,0.5,5.5,1.3,8.2H17v3.4h-2.8c1.2,3.2,2.9,6.2,4.9,9h3.6v3.4h-0.9
	c1.9,2.2,4.1,4.2,6.5,6h4.3v2.8c2.9,1.7,6.1,2.8,9.4,3.5v-2.6h2.8v3c0.9,0.1,1.8,0.1,2.7,0.1c0.8,0,1.7,0,2.5,0c0.2,0,0.4,0,0.6,0
	c0.2,0,0.4,0,0.6,0c0.8,0,1.7,0,2.5,0c0.9,0,1.8,0,2.7-0.1v-3h2.8v2.6c3.3-0.7,6.5-1.8,9.4-3.5v-2.8h4.3c2.4-1.8,4.5-3.8,6.5-6h-0.9
	v-3.4H82c2-2.8,3.6-5.8,4.9-9h-2.8V64H88z M52.4,22.2c0.4,0.8,1.4,1.6,2.9,1.9c2,0.4,3.7-1.7,3.7-1.7c0.1,1,0,2-0.3,3
	c-0.8,3.9-4.5,5.7-6.4,6.1V22.2z M52.4,38.6c1.1,0.9,1.7,2.2,1.6,3.6c0,1.4-0.6,2.7-1.6,3.6V38.6z M42.2,25.4c-0.2-1-0.3-2-0.3-3
	c0,0,1.8,2,3.7,1.7c1.5-0.3,2.5-1.1,2.9-1.9v9.3C46.8,31.1,43,29.3,42.2,25.4z M48.2,39.1c0.1-0.2,0.3-0.3,0.5-0.5v7.2
	C46.7,44.1,46.5,41.1,48.2,39.1z M45.9,58.9c-0.1-2.5,0.9-4.9,2.8-6.5v13C46.8,63.8,45.8,61.4,45.9,58.9z M45.9,83.1
	c-0.1,0-0.1,0-0.2,0c0-0.6-0.1-1.1-0.1-1.7c0-0.3,0-0.6,0-0.9c0.2-3.9,1.4-7,2.9-8.7c0,0,0.1-0.1,0.1-0.1v11.7
	C47.7,83.3,46.8,83.2,45.9,83.1z M52.4,52.4c1.8,1.6,2.9,4,2.8,6.5c0.1,2.5-0.9,4.9-2.8,6.5V52.4z M55.3,83.1c0,0-0.1,0-0.2,0
	c-0.9,0.1-1.8,0.2-2.7,0.3V71.6c0,0,0.1,0.1,0.1,0.1c1.5,1.7,2.7,4.8,2.9,8.7c0,0.3,0,0.6,0,0.9C55.4,81.9,55.4,82.5,55.3,83.1z"/>
<path class="st0" d="M89.2,30.4c0.2-1.7-0.2-3.5-1.3-4.9c-1.8-2.3-6.6-5.1-6.6-5.1h-3.7c0.9,0.9,5.6,4.9,5.6,4.9l-3.6,0.1
	c0,0,3.8,3.6,5.5,4.3C86.4,30.2,87.8,30.4,89.2,30.4z"/>
<path class="st0" d="M91.2,29.4l0,3.1h-3.8c0.9,3.3,3.6,5.7,6.9,6.3C94.3,38.8,95.8,31,91.2,29.4z"/>
<path class="st0" d="M96.4,36.7l-0.1,3h-4c0.6,3,2.4,5.6,5,7.1C97.3,46.8,100.6,40.7,96.4,36.7z"/>
<path class="st0" d="M100,46.6l-3,2.9l-2.6-2.3c0,0-1.6,7.4,2.9,12.7C97.4,59.9,102,57.2,100,46.6z"/>
<path class="st0" d="M96.6,62.4l-3.1-5.1c0,0-1.4,8,1.1,13.8c0,0,7.3-3.3,6.4-12.7L96.6,62.4z"/>
<path class="st0" d="M97.3,72.4l-5,2.3l-0.1-6.1c0,0-5.8,4.4-4,15.3C88.2,83.9,96.8,82.2,97.3,72.4z"/>
<path class="st0" d="M91.3,85.5l-6-0.1c0.1-2.4,0.5-4.8,1.2-7.1c0,0-12.6,12.2-16.3,13c-1.9,0.4-3.9,0.5-5.9,0.4v1.7l16.3,0.1
	C80.6,93.5,89.1,91.2,91.3,85.5z"/>
<g>
	<rect x="117.9" y="28.5" class="st0" width="5.2" height="33.4"/>
	<rect x="136.7" y="28.5" class="st0" width="5.2" height="33.4"/>
	<rect x="138.3" y="43.3" class="st0" width="55.9" height="2.2"/>
	<rect x="158.7" y="28.5" class="st0" width="5.2" height="33.4"/>
	<rect x="174.7" y="28.5" class="st0" width="5.2" height="33.4"/>
	<g>
		<path class="st0" d="M117.3,75.8c0-1.9,0.9-3.3,2-4.1c1-0.8,2.3-1.1,3.4-1.1c0.8,0,1.5,0.1,1.9,0.3c0.1,0.8,0.1,1.6,0.1,2.3
			c-0.3,0-0.6,0.1-0.9,0.1l-0.2-1.5c0-0.1-0.1-0.2-0.1-0.2c-0.3-0.2-0.7-0.2-1.2-0.2c-0.8,0-1.7,0.3-2.4,0.9
			c-0.8,0.8-1.3,1.9-1.3,3.2c0,1.2,0.2,2,0.9,2.7c0.5,0.6,1.5,0.9,2.5,0.9c0.9,0,1.9-0.3,2.6-0.6c0.1,0.2,0.1,0.5,0.2,0.7
			c-1.1,0.4-2.2,0.7-3,0.7c-1,0-2.1-0.2-2.9-0.8C118,78.4,117.3,77.2,117.3,75.8L117.3,75.8z"/>
		<path class="st0" d="M133.1,79.1C133.1,79.1,133.1,79.1,133.1,79.1c1.1-2.5,2.4-6,3.4-8.5c0.2,0,0.5,0,0.8,0c1,2.5,2.2,6,3.2,8.5
			l0.9,0c0,0.2,0,0.4,0,0.6c-0.4,0-0.9,0-1.4,0c-0.7,0-1.3,0-1.9,0c0-0.2,0-0.4,0-0.6l1.1,0c0,0,0,0,0-0.1c-0.2-0.6-0.5-1.4-0.7-2
			c0-0.1,0-0.1-0.1-0.1l-3.5,0c-0.2,0.7-0.6,1.5-0.8,2.1l1.3,0c0,0.2,0,0.4,0,0.6c-0.6,0-1.2,0-1.9,0c-0.4,0-0.9,0-1.3,0
			c0-0.2,0-0.4,0-0.6L133.1,79.1z M136.7,72.2c-0.5,1.3-1.1,2.8-1.5,4c0,0.1,0,0.1,0,0.1h3.1C137.8,75.1,137.2,73.5,136.7,72.2
			L136.7,72.2z"/>
		<path class="st0" d="M149,71.5c0-0.2,0-0.4,0-0.6c0.8,0,1.9,0,2.8,0c0.8,0,1.3,0,2,0.2c1,0.2,1.8,1.1,1.8,2.1c0,1.2-0.9,2.1-2,2.5
			v0.1c0.7,0.3,1.1,1.1,1.8,2.4c0.5,0.9,0.6,1,0.8,1l0.9,0c0,0.2,0,0.4,0,0.7c-0.3,0-0.7,0-1,0c-0.3,0-0.7,0-0.9,0
			c-0.5-0.6-1.4-2.5-1.9-3.2c-0.3-0.5-0.6-0.6-1.4-0.6c-0.6,0-0.8,0-0.8,0v3.1l1.2,0c0,0.2,0,0.4,0,0.7c-0.5,0-1.2,0-1.8,0
			c-0.6,0-1.1,0-1.6,0c0-0.2,0-0.4,0-0.7l0.9,0c0,0,0.1,0,0.1,0v-7.6L149,71.5z M151.1,75.3c0.1,0,0.4,0,0.8,0
			c1.8,0,2.5-1.1,2.5-1.9c0-1.3-1-2-2.4-2c-0.5,0-0.7,0-0.8,0.1L151.1,75.3z"/>
		<path class="st0" d="M167.4,79.1C167.5,79.1,167.5,79.1,167.4,79.1l0.1-7.6c-1.3,0-1.7,0-2,0c-0.3,0-0.4,0.1-0.4,0.3l-0.2,1.3
			c-0.3,0-0.6,0-0.9-0.1c0.1-0.7,0.1-1.5,0.2-2.3c0.3,0,0.8,0,1.4,0c0.3,0,2.1,0,2.6,0c0.5,0,2.2,0,2.6,0c0.6,0,1,0,1.3,0
			c0.1,0.7,0.1,1.5,0.1,2.3c-0.2,0-0.6,0.1-0.9,0.1l-0.2-1.3c0-0.2-0.1-0.2-0.4-0.3c-0.4,0-0.7,0-2,0l0,7.6l1.4,0c0,0.2,0,0.4,0,0.7
			c-0.6,0-1.3,0-1.9,0c-0.6,0-1.3,0-2,0c0-0.2,0-0.4,0-0.7L167.4,79.1z"/>
		<path class="st0" d="M180.8,79.1C180.9,79.1,180.9,79.1,180.8,79.1l0.1-7.6l-1,0c0-0.2,0-0.4,0-0.6c0.5,0,1.1,0,1.6,0
			c0.6,0,1.2,0,1.7,0c0,0.2,0,0.4,0,0.7l-1.1,0c0,0,0,0,0,0.1v3.2c0,0,0,0.1,0.1,0.1h4.5v-3.3l-1.2,0c0-0.2,0-0.4,0-0.6
			c0.5,0,1.1,0,1.7,0c0.5,0,1.1,0,1.5,0c0,0.2,0,0.4,0,0.6l-0.9,0c0,0,0,0,0,0.1l0,7.6l1,0c0,0.2,0,0.4,0,0.6c-0.5,0-1.1,0-1.6,0
			c-0.6,0-1.2,0-1.7,0c0-0.2,0-0.4,0-0.7l1.1,0c0,0,0.1,0,0.1-0.1v-3.6c0,0,0-0.1-0.1-0.1l-4.5,0l0,3.6l1.2,0c0,0.2,0,0.4,0,0.7
			c-0.5,0-1.2,0-1.7,0c-0.5,0-1.1,0-1.6,0c0-0.2,0-0.4,0-0.7L180.8,79.1z"/>
		<path class="st0" d="M197.2,79.1C197.2,79.1,197.3,79.1,197.2,79.1c1-2.5,2.3-6,3.3-8.5c0.2,0,0.5,0,0.8,0c0.9,2.5,2.1,6,3.1,8.5
			l0.8,0c0,0.2,0,0.4,0,0.6c-0.4,0-0.9,0-1.3,0c-0.6,0-1.3,0-1.8,0c0-0.2,0-0.4,0-0.6l1.1,0c0,0,0,0,0-0.1c-0.2-0.6-0.5-1.4-0.7-2
			c0-0.1,0-0.1-0.1-0.1l-3.3,0c-0.2,0.7-0.5,1.5-0.7,2.1l1.3,0c0,0.2,0,0.4,0,0.6c-0.5,0-1.2,0-1.9,0c-0.4,0-0.8,0-1.2,0
			c0-0.2,0-0.4,0-0.6L197.2,79.1z M200.7,72.2c-0.5,1.3-1,2.8-1.5,4c0,0.1,0,0.1,0,0.1h2.9C201.8,75.1,201.2,73.5,200.7,72.2
			L200.7,72.2z"/>
		<path class="st0" d="M219.1,72c0-0.1,0-0.2-0.1-0.3c-0.4-0.3-0.9-0.4-1.4-0.4c-0.7,0-1.6,0.2-2.3,0.9c-0.8,0.7-1.2,1.8-1.2,3.1
			c0,1.2,0.3,2.2,1,2.9c0.8,0.8,1.8,1,2.6,1c0.7,0,1.3-0.2,1.3-0.3v-2.4l-1.5,0c0-0.2,0-0.5,0-0.7c0.6,0,1.3,0,2,0
			c0.5,0,0.9,0,1.4,0c0,0.2,0,0.5,0,0.7l-0.7,0c0,0-0.1,0-0.1,0.1l0,2.8c-0.5,0.3-1.4,0.5-2.5,0.5c-1.3,0-2.4-0.3-3.2-0.9
			c-0.9-0.8-1.5-1.9-1.5-3.5c0-1.7,0.8-3.1,2-4c0.9-0.7,2.2-0.9,3-0.9c0.9,0,1.6,0.2,2.1,0.4c0,0.7,0.1,1.5,0.1,2.3
			c-0.3,0-0.5,0.1-0.8,0.1L219.1,72z"/>
		<path class="st0" d="M230.4,79.1C230.4,79.1,230.4,79.1,230.4,79.1l0-7.7l-1,0c0-0.2,0-0.4,0-0.7c0.5,0,1.1,0,1.6,0
			c0.4,0,2.7,0,3.1,0c0.6,0,0.9,0,1.2,0c0.1,0.7,0.1,1.4,0.1,2.1c-0.2,0-0.5,0.1-0.7,0.1l-0.2-1.2c0-0.1-0.1-0.2-0.3-0.2
			c-0.3,0-1.3-0.1-2.2-0.1c-0.1,0-0.3,0-0.4,0l0,3.4c0.8,0,1.4,0,2.2,0c0.3,0,0.3-0.1,0.3-0.3l0.1-0.7c0.2,0,0.5,0,0.7,0
			c0,0.4,0,0.9,0,1.3c0,0.4,0,0.9,0,1.3c-0.2,0-0.5,0-0.7,0l-0.1-0.7c0-0.2-0.1-0.3-0.3-0.3c-0.6,0-1.3,0-2.2,0l0,3.3
			c0,0.2,0,0.3,0.8,0.3c1.1,0,1.9,0,2.2-0.1c0.1,0,0.2-0.1,0.3-0.3l0.4-1.3c0.3,0,0.5,0.1,0.7,0.1c-0.2,0.7-0.3,1.5-0.5,2.2
			c-0.6,0-2.5,0-4.3,0c-0.6,0-1.1,0-1.6,0c0-0.2,0-0.4,0-0.6L230.4,79.1z"/>
	</g>
	<path class="st0" d="M136.7,28.5v4c0-1.4-1.1-2.5-2.5-2.5l-2.7-0.2v-1.3H136.7z"/>
	<path class="st0" d="M174.7,28.5v4c0-1.4-1.1-2.5-2.5-2.5l-2.7-0.2v-1.3H174.7z"/>
	<path class="st0" d="M197.5,28.5l0.5,7.7h-1.2l-0.4-1.6c-0.6-2.3-1.1-3.6-4.6-4l-12.1,0.1v-2.2H197.5z"/>
	<path class="st0" d="M194.6,41.3v7.1h-1.2c0,0,0.2-2.5-1.9-2.9l0.3-2.2c0.1,0,1.7-0.4,1.5-2.1H194.6z"/>
	<path class="st0" d="M179.9,54.3c0,0,0,1.7,0.3,2.6c0.1,0.4,0.7,1.2,1.1,1.6c0.1,0.1,0.8,0.9,2.2,1.2c0.9,0.2,6.3,0.1,6.3,0.1
		l2.7-0.1c0.7,0,1.2-0.2,1.7-0.5c0.8-0.5,1.9-1.4,2.3-2.3c0.6-1.4,1.5-3.6,1.5-3.6h1.7l-1.9,8.5h-17.9V54.3z"/>
	<path class="st0" d="M236.6,53.4c0.4,0.2,0.7,0.4,1.1,0.6c-0.6,1.1-1.7,2.8-3.4,4.4c-3.2,2.9-6.8,3.6-8.6,4
		c-1.7,0.3-5.6,0.7-9.8-0.9c-4.5-1.6-6.9-4.5-8.2-6.4c-2-3.1-2.5-6-2.7-7.1c-0.1-0.7-0.5-4,0.8-8.1c0.4-1.2,1.4-4,4-6.7
		c2.4-2.5,4.9-3.6,6.2-4.1c0.8-0.3,3.2-1.2,6.4-1.4c1.5-0.1,3.8-0.2,6.7,0.8c1.9,0.6,3.3,1.5,4.3,2.2c0.3,0.1,0.9,0.3,1.7,0.2
		c0.6-0.1,1.1-0.4,1.4-0.5c0.2,2.9,0.4,5.8,0.5,8.7c-0.4,0-0.7,0.1-1.1,0.1c-0.2-1.1-0.8-3.3-2.5-5.4c-2.5-3.1-5.8-3.9-7.3-4.2
		c-1-0.2-4.6-0.7-8.2,1.4c-4,2.3-5.8,7-6,8.9c-0.2,1.5-1.1,7.5-0.1,10.8c0.5,1.8,1.9,5,4.7,7.1c2.1,1.6,4.2,1.8,5.8,2.1
		c1.6,0.3,4.3,0.7,7.3-0.5c2.5-1,4.1-2.7,5-3.6C235.5,55,236.2,54.1,236.6,53.4z"/>
</g>
</svg>
